<svg width="18" height="14" viewBox="0 0 18 14" fill="none" xmlns="http://www.w3.org/2000/svg">
<path d="M14.7692 6.99997C14.7723 8.20839 14.2983 9.36918 13.4504 10.2302C13.3427 10.3369 13.1974 10.3969 13.0458 10.3974C12.8943 10.3978 12.7486 10.3385 12.6404 10.2324C12.5321 10.1263 12.47 9.98182 12.4674 9.83026C12.4648 9.6787 12.522 9.53222 12.6266 9.42247C13.2604 8.77556 13.6154 7.90595 13.6154 7.00026C13.6154 6.09457 13.2604 5.22496 12.6266 4.57805C12.522 4.4683 12.4648 4.32182 12.4674 4.17026C12.47 4.01869 12.5321 3.87424 12.6404 3.76812C12.7486 3.662 12.8943 3.60275 13.0458 3.60317C13.1974 3.60358 13.3427 3.66364 13.4504 3.77036C14.2982 4.6312 14.7721 5.79176 14.7692 6.99997ZM14.5869 1.38651C14.4752 1.28185 14.3265 1.22585 14.1736 1.23083C14.0206 1.23581 13.8758 1.30135 13.7712 1.41305C13.6665 1.52475 13.6105 1.67344 13.6155 1.82643C13.6205 1.97942 13.686 2.12416 13.7977 2.22882C14.4666 2.83074 15.0015 3.56658 15.3676 4.38859C15.7338 5.21059 15.923 6.1004 15.923 7.00026C15.923 7.90012 15.7338 8.78993 15.3676 9.61193C15.0015 10.4339 14.4666 11.1698 13.7977 11.7717C13.6861 11.8764 13.6206 12.0211 13.6157 12.174C13.6108 12.3269 13.6668 12.4756 13.7715 12.5872C13.8761 12.6988 14.0208 12.7643 14.1738 12.7692C14.3267 12.7741 14.4753 12.7181 14.5869 12.6134C15.371 11.9036 15.9977 11.0374 16.4266 10.0706C16.8555 9.10384 17.0771 8.05791 17.0771 7.00026C17.0771 5.94261 16.8555 4.89668 16.4266 3.9299C15.9977 2.96311 15.371 2.09632 14.5869 1.38651ZM11.3077 1.18459V12.8154C11.3051 13.0253 11.2456 13.2307 11.1355 13.4096C11.0254 13.5884 10.8689 13.7341 10.6826 13.831C10.4964 13.928 10.2873 13.9726 10.0776 13.9602C9.86798 13.9477 9.66564 13.8787 9.49213 13.7604L4.7804 10.4615H2.65386C2.19484 10.4615 1.75461 10.2792 1.43003 9.95458C1.10544 9.63 0.923096 9.18977 0.923096 8.73074V5.2692C0.923096 4.81017 1.10544 4.36995 1.43003 4.04536C1.75461 3.72078 2.19484 3.53843 2.65386 3.53843H4.77983L9.49213 0.239588C9.66568 0.121239 9.86808 0.0521755 10.0778 0.0397527C10.2875 0.02733 10.4966 0.0720131 10.6829 0.169044C10.8692 0.266074 11.0257 0.411818 11.1357 0.590755C11.2458 0.769692 11.3052 0.974544 11.3077 1.18459ZM4.38463 4.69228H2.65386C2.50086 4.69228 2.35411 4.75306 2.24592 4.86126C2.13772 4.96945 2.07694 5.11619 2.07694 5.2692V8.73074C2.07694 8.88375 2.13772 9.03049 2.24592 9.13869C2.35411 9.24688 2.50086 9.30766 2.65386 9.30766H4.38463V4.69228ZM10.1573 12.8165L10.1539 1.18516L5.53848 4.41593V9.58459L10.1539 12.8154L10.1573 12.8165Z" fill="white"/>
</svg>
