<svg fill="none" xmlns="http://www.w3.org/2000/svg">
<defs>
<symbol id="sound-large" width="28" height="26" viewBox="0 0 28 26">
<path d="M24 13C24.0052 15.0946 23.1838 17.1066 21.714 18.599C21.5274 18.7839 21.2755 18.888 21.0128 18.8888C20.75 18.8895 20.4975 18.7868 20.3099 18.6028C20.1223 18.4189 20.0146 18.1685 20.0101 17.9058C20.0057 17.6431 20.1048 17.3892 20.286 17.199C21.3847 16.0777 22.0001 14.5703 22.0001 13.0005C22.0001 11.4306 21.3847 9.92329 20.286 8.80197C20.1048 8.61175 20.0057 8.35784 20.0101 8.09513C20.0146 7.83243 20.1223 7.58204 20.3099 7.3981C20.4975 7.21416 20.75 7.11145 21.0128 7.11218C21.2755 7.1129 21.5274 7.217 21.714 7.40197C23.1835 8.89409 24.005 10.9057 24 13ZM23.684 3.26997C23.4904 3.08856 23.2327 2.9915 22.9675 3.00012C22.7023 3.00875 22.4514 3.12236 22.27 3.31597C22.0886 3.50958 21.9915 3.76732 22.0002 4.0325C22.0088 4.29768 22.1224 4.54856 22.316 4.72997C23.4754 5.7733 24.4026 7.04876 25.0372 8.47357C25.6718 9.89838 25.9998 11.4407 25.9998 13.0005C25.9998 14.5602 25.6718 16.1026 25.0372 17.5274C24.4026 18.9522 23.4754 20.2276 22.316 21.271C22.1225 21.4524 22.009 21.7032 22.0005 21.9683C21.992 22.2334 22.0891 22.491 22.2705 22.6845C22.4519 22.8779 22.7027 22.9914 22.9678 23C23.2329 23.0085 23.4905 22.9114 23.684 22.73C25.0431 21.4996 26.1294 19.9982 26.8728 18.3224C27.6162 16.6467 28.0003 14.8337 28.0003 13.0005C28.0003 11.1672 27.6162 9.35428 26.8728 7.67851C26.1294 6.00274 25.0431 4.50031 23.684 3.26997ZM18 2.91997V23.08C17.9955 23.444 17.8923 23.7999 17.7015 24.1099C17.5107 24.4199 17.2395 24.6724 16.9166 24.8405C16.5937 25.0086 16.2312 25.0859 15.8679 25.0643C15.5045 25.0428 15.1537 24.9231 14.853 24.718L6.686 19H3C2.20435 19 1.44129 18.6839 0.87868 18.1213C0.316071 17.5587 0 16.7956 0 16V9.99997C0 9.20432 0.316071 8.44126 0.87868 7.87865C1.44129 7.31604 2.20435 6.99997 3 6.99997H6.685L14.853 1.28197C15.1538 1.07683 15.5046 0.957125 15.8681 0.935592C16.2316 0.914059 16.5941 0.99151 16.917 1.1597C17.2399 1.32788 17.5112 1.58051 17.7019 1.89066C17.8926 2.20082 17.9956 2.5559 18 2.91997ZM6 8.99997H3C2.73478 8.99997 2.48043 9.10533 2.29289 9.29287C2.10536 9.4804 2 9.73476 2 9.99997V16C2 16.2652 2.10536 16.5195 2.29289 16.7071C2.48043 16.8946 2.73478 17 3 17H6V8.99997ZM16.006 23.082L16 2.92097L8 8.52097V17.48L16 23.08L16.006 23.082Z" fill="white"/>
</symbol>
<symbol id="sound-sm" width="18" height="14" viewBox="0 0 18 14">
<path d="M14.7692 6.99997C14.7723 8.20839 14.2983 9.36918 13.4504 10.2302C13.3427 10.3369 13.1974 10.3969 13.0458 10.3974C12.8943 10.3978 12.7486 10.3385 12.6404 10.2324C12.5321 10.1263 12.47 9.98182 12.4674 9.83026C12.4648 9.6787 12.522 9.53222 12.6266 9.42247C13.2604 8.77556 13.6154 7.90595 13.6154 7.00026C13.6154 6.09457 13.2604 5.22496 12.6266 4.57805C12.522 4.4683 12.4648 4.32182 12.4674 4.17026C12.47 4.01869 12.5321 3.87424 12.6404 3.76812C12.7486 3.662 12.8943 3.60275 13.0458 3.60317C13.1974 3.60358 13.3427 3.66364 13.4504 3.77036C14.2982 4.6312 14.7721 5.79176 14.7692 6.99997ZM14.5869 1.38651C14.4752 1.28185 14.3265 1.22585 14.1736 1.23083C14.0206 1.23581 13.8758 1.30135 13.7712 1.41305C13.6665 1.52475 13.6105 1.67344 13.6155 1.82643C13.6205 1.97942 13.686 2.12416 13.7977 2.22882C14.4666 2.83074 15.0015 3.56658 15.3676 4.38859C15.7338 5.21059 15.923 6.1004 15.923 7.00026C15.923 7.90012 15.7338 8.78993 15.3676 9.61193C15.0015 10.4339 14.4666 11.1698 13.7977 11.7717C13.6861 11.8764 13.6206 12.0211 13.6157 12.174C13.6108 12.3269 13.6668 12.4756 13.7715 12.5872C13.8761 12.6988 14.0208 12.7643 14.1738 12.7692C14.3267 12.7741 14.4753 12.7181 14.5869 12.6134C15.371 11.9036 15.9977 11.0374 16.4266 10.0706C16.8555 9.10384 17.0771 8.05791 17.0771 7.00026C17.0771 5.94261 16.8555 4.89668 16.4266 3.9299C15.9977 2.96311 15.371 2.09632 14.5869 1.38651ZM11.3077 1.18459V12.8154C11.3051 13.0253 11.2456 13.2307 11.1355 13.4096C11.0254 13.5884 10.8689 13.7341 10.6826 13.831C10.4964 13.928 10.2873 13.9726 10.0776 13.9602C9.86798 13.9477 9.66564 13.8787 9.49213 13.7604L4.7804 10.4615H2.65386C2.19484 10.4615 1.75461 10.2792 1.43003 9.95458C1.10544 9.63 0.923096 9.18977 0.923096 8.73074V5.2692C0.923096 4.81017 1.10544 4.36995 1.43003 4.04536C1.75461 3.72078 2.19484 3.53843 2.65386 3.53843H4.77983L9.49213 0.239588C9.66568 0.121239 9.86808 0.0521755 10.0778 0.0397527C10.2875 0.02733 10.4966 0.0720131 10.6829 0.169044C10.8692 0.266074 11.0257 0.411818 11.1357 0.590755C11.2458 0.769692 11.3052 0.974544 11.3077 1.18459ZM4.38463 4.69228H2.65386C2.50086 4.69228 2.35411 4.75306 2.24592 4.86126C2.13772 4.96945 2.07694 5.11619 2.07694 5.2692V8.73074C2.07694 8.88375 2.13772 9.03049 2.24592 9.13869C2.35411 9.24688 2.50086 9.30766 2.65386 9.30766H4.38463V4.69228ZM10.1573 12.8165L10.1539 1.18516L5.53848 4.41593V9.58459L10.1539 12.8154L10.1573 12.8165Z" fill="white"/>
</symbol>
<symbol id="arrow" width="94" height="24" viewBox="0 0 94 24">
<path d="M0.939339 10.9393C0.353554 11.5251 0.353554 12.4749 0.939339 13.0607L10.4853 22.6066C11.0711 23.1924 12.0208 23.1924 12.6066 22.6066C13.1924 22.0208 13.1924 21.0711 12.6066 20.4853L4.12132 12L12.6066 3.51472C13.1924 2.92893 13.1924 1.97919 12.6066 1.3934C12.0208 0.807611 11.0711 0.807611 10.4853 1.3934L0.939339 10.9393ZM94 10.5L2 10.5V13.5L94 13.5V10.5Z" fill="white"/>
</symbol>
</defs>
</svg>